# xmcd
# 
# Track frame offsets:
#     150
#     19603
#     41581
#     58820
#     73830
#     87520
#     105182
#     121780
#     147928
#     165629
# 
# Disc length: 2416
# 
# Revision: 0
# Processed by: cddbd v1.5.2PL0 Copyright (c) Steve Scherf et al.
# Submitted via: fre:ac v1.0.27
# 
DISCID=81096e0a
DTITLE=Various Artist - Rec 28
DYEAR=0
DGENRE=Top 40
TTITLE0=Deep Blue Something - Breakfast At Tiffany's
TTITLE1=10,000 Maniacs - What's The Matter Here
TTITLE2=Kid Creole and The Coconuts - Annie, I'm Not Your Daddy
TTITLE3=Modern Romance featuring John Du Prez - Cherry Pink And Apple Blossom White (7" Version)
TTITLE4=Amazulu - Too Good To Be Forgotten
TTITLE5=The Human League - Together In Electric Dreams
TTITLE6=Wet Wet Wet - Sweet Little Mystery
TTITLE7=Yazoo - Situation (Us 12 Inch Mix)
TTITLE8=Nik Kershaw - The Riddle
TTITLE9=Tony Christie - I Did What I Did For Maria
EXTD=
EXTT0=
EXTT1=
EXTT2=
EXTT3=
EXTT4=
EXTT5=
EXTT6=
EXTT7=
EXTT8=
EXTT9=
PLAYORDER=
